<svg xmlns="http://www.w3.org/2000/svg" width="64" height="64" fill="none" viewBox="0 0 64 64"><path fill="#ffffff" d="M7.721 63.107c-.914-.234-1.39-.611-3.833-3.034C.992 57.18.811 56.893.822 55.393c0-1.677-.523-1.077 8.759-10.364 9.36-9.371 8.883-8.966 10.57-8.966.794 0 .985.042 1.616.366l.724.367 4.534-4.527-.57-.895c-1.099-1.725-2.145-4.234-2.613-6.315A19.87 19.87 0 0 1 27.695 8.32C34.17.22 45.8-1.588 54.385 4.198c4.717 3.167 7.789 8.048 8.663 13.805.182 1.218.182 4.101 0 5.393a19.65 19.65 0 0 1-5.735 11.44 17.5 17.5 0 0 1-5.061 3.643c-2.49 1.248-4.613 1.837-7.491 2.081-4.097.344-8.64-.792-12.117-3.014l-.895-.57-4.544 4.527.368.733c.325.63.364.82.364 1.604.01 1.684.41 1.208-8.913 10.517-7.186 7.166-8.295 8.225-8.844 8.475-.7.325-1.787.446-2.459.275m38.542-26.04a16.72 16.72 0 0 0 11.984-9.116c3.617-7.541 1.18-16.394-5.806-21.073-1.654-1.117-3.973-2.06-6.159-2.497-1.504-.304-4.705-.273-6.282.062a17 17 0 0 0-6.372 2.77c-1.156.811-3.07 2.721-3.872 3.857a16.58 16.58 0 0 0 .986 20.55 16.67 16.67 0 0 0 10.155 5.55c1.32.203 4.015.155 5.375-.09zm-9.727 19.166a202 202 0 0 1-5.712-1.685c-.062-.072 3.14-11.43 3.273-11.562.06-.071 11.038 2.994 11.485 3.207.161.07-.01.75-1.375 5.458l-1.646 5.819c-.07.225-.182.405-.252.405-.07-.01-2.672-.75-5.774-1.645zm7.582 1.372c0-.143 3.192-11.268 3.242-11.3.123-.09 11.25-3.198 11.294-3.147.052.049-3.121 11.268-3.2 11.327-.053.054-10.735 3.098-11.08 3.168-.143.031-.256 0-.256-.05M25.63 52.63c2.195-2.215 4.156-4.226 4.35-4.488.446-.57 1.057-1.901 1.229-2.642.072-.304.142-.912.154-1.349l.031-.803.467-.132c.274-.07.51-.11.529-.091.062.071-3.14 11.229-3.242 11.33-.05.04-1.758.555-3.811 1.136l-3.7 1.055 3.996-4.01zm21.57-7.95a5 5 0 0 1-.155-.49l-.122-.405.407-.07c3.485-.59 7.227-2.224 10.174-4.445.415-.325.65-.447.688-.358.133.428.703 2.466.694 2.498-.092.079-11.662 3.329-11.689 3.28zM7.955 41.3c-.132-.1-3.069-10.04-3.294-11.147-.041-.223.377-.11 5.662 1.39 5.509 1.575 5.7 1.635 5.774 1.928.08.256.03.335-.325.58-.213.152-2.005 1.878-3.965 3.836a152 152 0 0 1-3.609 3.554.65.65 0 0 1-.243-.14m2.134-11.382a797 797 0 0 1-5.642-1.624c-.042-.031 3.285-11.52 3.343-11.593.063-.048 11.506 3.149 11.63 3.26.02.021-.703 2.64-1.607 5.816-1.504 5.25-1.678 5.777-1.881 5.767-.133 0-2.755-.74-5.855-1.624zm7.695 1.402c.03-.08.56-1.877 1.156-3.99l1.088-3.828.154.834c.244 1.44.693 3.085 1.21 4.517.273.772.477 1.4.468 1.42-.019.022-.866.265-1.869.548-1.017.282-1.93.547-2.044.586-.153.042-.204.01-.163-.09zm-4.25-14.617c-3.09-.884-5.642-1.654-5.67-1.706-.111-.163-3.246-11.227-3.203-11.268.063-.07 11.213 3.126 11.326 3.238.122.132 3.323 11.38 3.241 11.369l-5.683-1.637Zm5.592-4.458-1.352-4.689-.204-.732 4.401-1.257c2.43-.68 4.483-1.278 4.585-1.32.08-.039-.224.366-.681.873a22.7 22.7 0 0 0-5.092 9.288 10.4 10.4 0 0 0-.344 1.451c0 .772-.306-.06-1.312-3.603z" style="stroke-width:1.29936"/></svg>