<svg xmlns="http://www.w3.org/2000/svg" width="64" height="64" fill="none" viewBox="0 0 64 64"><rect width="64" height="64" fill="#176fc1" rx="7.291"/><path fill="#fff" d="M13.315 55.94c-.704-.18-1.07-.47-2.95-2.335-2.229-2.226-2.368-2.447-2.36-3.602 0-1.29-.402-.828 6.741-7.976 7.204-7.212 6.837-6.9 8.135-6.9.611 0 .758.032 1.244.282l.557.282 3.489-3.484-.439-.689c-.845-1.327-1.65-3.258-2.01-4.86a15.29 15.29 0 0 1 2.965-12.882C33.67 7.542 42.62 6.15 49.228 10.603c3.63 2.438 5.994 6.194 6.667 10.625.14.937.14 3.156 0 4.15a15.12 15.12 0 0 1-4.414 8.804 13.5 13.5 0 0 1-3.895 2.804c-1.916.961-3.55 1.414-5.765 1.602-3.153.265-6.65-.61-9.325-2.32l-.689-.439-3.497 3.485.283.564c.25.484.28.631.28 1.234.008 1.296.315.93-6.859 8.094-5.531 5.515-6.384 6.33-6.807 6.523-.539.25-1.375.343-1.892.211M42.977 35.9a12.87 12.87 0 0 0 9.223-7.016c2.784-5.804.908-12.617-4.468-16.218-1.273-.86-3.058-1.586-4.74-1.922-1.158-.234-3.621-.21-4.835.048a13.1 13.1 0 0 0-4.904 2.132c-.89.624-2.362 2.094-2.98 2.968a12.76 12.76 0 0 0 .759 15.815 12.83 12.83 0 0 0 7.815 4.272c1.016.156 3.09.119 4.137-.07zm-7.486 14.75c-1.47-.407-2.933-.845-4.396-1.297-.048-.055 2.417-8.797 2.519-8.898.046-.055 8.495 2.304 8.839 2.468.124.054-.008.577-1.058 4.201l-1.267 4.478c-.054.173-.14.312-.194.312-.054-.008-2.056-.578-4.444-1.266zm5.835 1.056c0-.11 2.457-8.672 2.495-8.696.095-.07 8.659-2.462 8.692-2.423.04.038-2.402 8.672-2.463 8.718-.04.041-8.261 2.384-8.527 2.438-.11.024-.197 0-.197-.038m-14.228-3.829c1.689-1.704 3.198-3.252 3.348-3.454.343-.438.813-1.463.945-2.033.056-.234.11-.702.119-1.038l.024-.618.359-.102c.211-.054.392-.085.407-.07.048.055-2.417 8.642-2.495 8.72-.038.03-1.353.427-2.933.874l-2.847.812 3.075-3.086zm16.6-6.118a4 4 0 0 1-.119-.377l-.094-.312.313-.054c2.682-.454 5.562-1.711 7.83-3.421.32-.25.5-.344.53-.275.102.329.541 1.898.534 1.922-.071.061-8.975 2.562-8.996 2.524zm-30.203-2.601c-.102-.078-2.362-7.727-2.535-8.579-.032-.172.29-.085 4.357 1.07 4.24 1.212 4.387 1.258 4.444 1.483.062.197.023.258-.25.446-.164.118-1.543 1.446-3.052 2.953a117 117 0 0 1-2.777 2.735.5.5 0 0 1-.187-.108m1.642-8.759a613 613 0 0 1-4.342-1.25c-.032-.024 2.528-8.866 2.573-8.922.048-.037 8.855 2.423 8.95 2.508.016.017-.541 2.033-1.236 4.477-1.158 4.04-1.292 4.446-1.448 4.438-.102 0-2.12-.57-4.506-1.25zm5.922 1.079c.024-.062.431-1.445.89-3.071l.837-2.946.119.642c.188 1.108.533 2.374.931 3.476.21.594.367 1.078.36 1.093-.014.017-.666.204-1.438.422-.783.217-1.486.421-1.573.451-.118.032-.157.008-.126-.07zm-3.271-11.25c-2.378-.68-4.342-1.273-4.363-1.313-.086-.125-2.498-8.64-2.465-8.672.048-.054 8.629 2.406 8.716 2.492.094.102 2.558 8.758 2.495 8.75l-4.374-1.26zm4.304-3.431-1.04-3.608-.157-.564 3.387-.967c1.87-.524 3.45-.984 3.528-1.016.062-.03-.172.282-.524.672a17.45 17.45 0 0 0-3.919 7.148 8 8 0 0 0-.264 1.117c0 .594-.236-.046-1.01-2.773z"/></svg>