<svg xmlns="http://www.w3.org/2000/svg" width="24" height="24" style="display:inline"><title>zoom 1 to 1</title><g style="display:inline" transform="translate(0 -8)"><path d="M7.5 22.5c0 2 2 2 2 2l-7 7-2-2z" style="fill:#ffcc30;fill-opacity:1;fill-rule:evenodd;stroke:#505050;stroke-width:1;stroke-linecap:butt;stroke-linejoin:round;stroke-miterlimit:4;stroke-opacity:1;stroke-dasharray:none"/><path d="M17.961 7c0 3.355-2.669 6.074-5.961 6.074S6.039 10.354 6.039 7C6.039 3.645 8.708.926 12 .926S17.961 3.646 17.961 7" style="opacity:.8;fill:#e6e6e6;fill-opacity:1;fill-rule:nonzero;stroke:#505050;stroke-width:.75218332;stroke-linecap:round;stroke-linejoin:round;stroke-miterlimit:4;stroke-opacity:1;stroke-dasharray:none;stroke-dashoffset:7" transform="matrix(1.342 0 0 1.31704 -1.604 8.28)"/><g transform="matrix(-1 0 0 -1 36.8 52.8)"><rect width="10.8" height="10.8" x="13" y="21" rx=".982" ry=".982" style="fill:#6d97c4;fill-opacity:1;stroke:#000;stroke-width:.40000001;stroke-linejoin:round;stroke-miterlimit:4;stroke-opacity:1;stroke-dasharray:none;display:inline"/><path d="M21 29.8c-1.8-2-2.89-1.97-5.2-3.402C18 25 19.2 25.2 21 23" style="fill:none;stroke:#fff;stroke-width:2;stroke-linecap:round;stroke-linejoin:round;stroke-miterlimit:4;stroke-opacity:1;stroke-dasharray:none;stroke-dashoffset:0;marker:none;visibility:visible;display:inline;overflow:visible"/></g><path d="m10 24-2 2-2-2 2-2z" style="fill:#000;fill-rule:evenodd;stroke:#505050;stroke-width:1;stroke-linecap:butt;stroke-linejoin:round;stroke-miterlimit:4;stroke-opacity:1;stroke-dasharray:none"/><path d="M10 13c2-3 4.442-3.398 6-2s-2 1-4 3 0 6-2 6-2-4 0-7" style="opacity:.7;fill:#fcffff;fill-rule:evenodd;stroke:none;display:inline"/><path d="m2 29 4-4" style="opacity:.5;fill:#000;fill-opacity:1;fill-rule:nonzero;stroke:#fcffff;stroke-width:1;stroke-linecap:round;stroke-linejoin:round;stroke-miterlimit:4;stroke-opacity:1;stroke-dasharray:none;stroke-dashoffset:0;marker:none;visibility:visible;display:inline;overflow:visible"/><rect width="10.4" height="5.2" x="13.2" y="21.2" rx=".813" ry=".713" style="fill:#fff;fill-opacity:.12;stroke:none"/></g></svg>